<svg width="24" height="24" xmlns="http://www.w3.org/2000/svg" xmlns:xlink="http://www.w3.org/1999/xlink"><defs><path id="a" d="M.104.05H19.85v10.651H.104z"/></defs><g fill="none" fill-rule="evenodd"><path d="M0 0h24v24H0z"/><g transform="matrix(1 0 0 -1 2.033 21.456)"><g fill-rule="nonzero"><path d="M.104.597C.104.295.349.051.65.051h18.653c.302 0 .547.244.547.546v9.557a.547.547 0 0 1-.547.547H.65a.547.547 0 0 1-.547-.547V.597z" fill="#EFEFF0"/><path fill="#ABADAD" d="M12.902 16.902h-5.88v1.463h5.88z"/><path fill="#E3E4E5" d="M19.85 7.76H.105v7.68H5.62v1.462l1.401 1.463V15.44h5.881v2.925l1.463-1.463V15.44h5.486z"/></g><mask id="b" fill="#fff"><use xlink:href="#a"/></mask><g mask="url(#b)" fill-rule="nonzero"><path d="M9.955 10.272s4.983.224 7.624-4.783H9.532s-1.52.05-2.816-1.794c-.373-.773-.772-1.57-.323-3.139C5.745 1.652 2.955 6.51 2.955 6.51s1.968 3.563 7 3.762" fill="#E14C40"/><path d="M17.319-2.442S15.021-6.868 9.364-6.65L13.39.317s.803 1.291-.145 3.335c-.482.71-.973 1.454-2.557 1.85 1.274.013 6.876 0 6.876 0s2.1-3.486-.244-7.944" fill="#FFD24D"/><path d="M2.627-2.476s-2.685 4.204.333 8.994l4.022-6.97s.716-1.34 2.96-1.541c.856.062 1.745.115 2.88 1.288-.625-1.109-3.438-5.954-3.438-5.954s-4.07-.076-6.757 4.183" fill="#00AA60"/><path d="M6.164 1.738a3.77 3.77 0 1 0 7.54 0 3.77 3.77 0 0 0-7.54 0" fill="#FFF"/><path d="M6.978 1.738a2.956 2.956 0 1 0 5.913 0 2.956 2.956 0 0 0-5.913 0" fill="#577FC0"/><path d="M9.955 10.272s3.29.148 5.94-2.483c-.044 0-9.049-.028-11.942-.028C5 8.808 6.92 10.15 9.955 10.27" fill="#D6483E"/></g></g></g></svg>