<svg width="217" height="92" xmlns="http://www.w3.org/2000/svg" xmlns:xlink="http://www.w3.org/1999/xlink"><defs><path d="M80.612 101.328l3.903-23.417A2.5 2.5 0 0 0 82.049 75H37.95a2.5 2.5 0 0 0-2.466 2.911l3.903 23.417c-4.298.553-8.596 1.28-12.894 2.18a5 5 0 0 1-5.994-5.444C23.312 72.688 36.479 60 60 60s36.688 12.688 39.5 38.064a5 5 0 0 1-5.994 5.444c-4.298-.9-8.596-1.627-12.894-2.18zM60 55c-11.046 0-20-8.954-20-20s8.954-20 20-20 20 8.954 20 20-8.954 20-20 20z" id="a"/></defs><g transform="translate(2 -12)" fill="none" fill-rule="evenodd"><g transform="translate(47)"><mask id="b" fill="#fff"><use xlink:href="#a"/></mask><g mask="url(#b)" fill="#848886"><path d="M0 0h120v120H0z"/></g><path fill="#4D96F1" d="M48.35 88.053l3.907 3.907-1.675 1.675L45 88.053l5.582-5.583 1.675 1.675z"/><path fill="#4D96F1" d="M56.165 88.053l-1.675 1.674-2.791-2.79 1.675-1.676z"/><path fill="#FDC769" d="M66.27 80l1.675 1.675L53.52 96.099l-1.674-1.674z"/><path fill="#4D96F1" d="M71.605 88.053l-3.908-3.908 1.675-1.675 5.582 5.583-5.582 5.582-1.675-1.675z"/></g><circle fill="#4D96F1" fill-rule="nonzero" cx="153" cy="20" r="4"/><circle fill="#FDC769" fill-rule="nonzero" cx="50" cy="83" r="4"/><rect fill="#4D96F1" fill-rule="nonzero" transform="rotate(41 44.784 42.959)" x="24.284" y="40.959" width="41" height="4" rx="2"/><path d="M186.612 17.49a2 2 0 1 1 2.624 3.02l-27.924 24.274a2 2 0 1 1-2.624-3.02l27.924-24.273zM178.193 101.784l-10.643-.453a2 2 0 0 1-1.664-2.968l4.619-8.333a2 2 0 0 1 3.399-.161l6.023 8.786a2 2 0 0 1-1.734 3.129zM52.115 15.832l7.47-2.867a2 2 0 0 1 2.583 1.15l2.867 7.47a2 2 0 0 1-1.15 2.583l-7.47 2.867a2 2 0 0 1-2.583-1.15l-2.867-7.47a2 2 0 0 1 1.15-2.583z" fill="#FDC769" fill-rule="nonzero"/><path d="M205.589 37.069l7.727 2.07a2 2 0 0 1 1.414 2.45l-2.07 7.727a2 2 0 0 1-2.45 1.414l-7.727-2.07a2 2 0 0 1-1.414-2.45l2.07-7.727a2 2 0 0 1 2.45-1.414z" fill="#4D96F1" fill-rule="nonzero"/><path d="M17.99 59.925l10.436-2.135a2 2 0 0 1 2.332 2.477l-2.466 9.203a2 2 0 0 1-3.258.979l-7.97-7.068a2 2 0 0 1 .925-3.456z" fill="#FDC769" fill-rule="nonzero"/><path d="M165.72 67.725c7.348-9.24 14.15-12.4 20.409-9.482 9.387 4.377-1.389 14.75 14.78 22.29M.469 93.477c3.655 3.98 7.617 5.783 11.883 5.41 6.4-.56 10.549-9.853 21.572-10.817" stroke="#4D96F1" stroke-width="4" stroke-linecap="round" stroke-linejoin="round"/></g></svg>